# xmcd
#
# Track frame offsets:
# 150
# 13755
# 31635
# 44642
# 60750
# 72842
# 85780
# 102577
# 121675
# 135137
# 152482
# 167735
# 182537
# 196252
# 211057
#
# Disc length: 3060 seconds
#
#
# Revision: 4
# Processed by: cddbd v1.5.2PL0 Copyright (c) Steve Scherf et al.
# Submitted via: FreeRIP 2.951 
#
DISCID=b00bf20f
DTITLE=John Anderson - Greatest Hits - John Anderson - Greatest Hits
DYEAR=1996
DGENRE=Country
TTITLE0=Money In The Bank
TTITLE1=Seminole Wind
TTITLE2=Straight Tequila Night
TTITLE3=I Wish I Could Have Been There
TTITLE4=I Fell In The Water
TTITLE5=I've Got It Made
TTITLE6=Keep Your Hands To Yourself
TTITLE7=Mississippi Moon
TTITLE8=Swingin'
TTITLE9=When It Comes To You
TTITLE10=Long Hard Lesson Learned
TTITLE11=Let Go Of The Stone
TTITLE12=Country 'Til I Die
TTITLE13=Who Got Our Love
TTITLE14=Bend It 'Til It Breaks
EXTD=Mario´s Musik
EXTT0=
EXTT1=
EXTT2=
EXTT3=
EXTT4=
EXTT5=
EXTT6=
EXTT7=
EXTT8=
EXTT9=
EXTT10=
EXTT11=
EXTT12=
EXTT13=
EXTT14=
PLAYORDER=
